<svg width="169" height="36" viewBox="0 0 169 36" fill="none" xmlns="http://www.w3.org/2000/svg">
<path d="M16.56 16.952H11.136V26.936C11.136 27.768 11.344 28.376 11.76 28.76C12.176 29.144 12.784 29.368 13.584 29.432C14.384 29.464 15.376 29.448 16.56 29.384V35C12.304 35.48 9.296 35.08 7.536 33.8C5.808 32.52 4.944 30.232 4.944 26.936V16.952H0.768V11H4.944V6.152L11.136 4.28V11H16.56V16.952ZM21.1178 8.12C20.0938 8.12 19.1978 7.752 18.4297 7.016C17.6938 6.248 17.3258 5.352 17.3258 4.328C17.3258 3.304 17.6938 2.408 18.4297 1.64C19.1978 0.871998 20.0938 0.487998 21.1178 0.487998C22.1738 0.487998 23.0698 0.871998 23.8058 1.64C24.5738 2.408 24.9578 3.304 24.9578 4.328C24.9578 5.352 24.5738 6.248 23.8058 7.016C23.0698 7.752 22.1738 8.12 21.1178 8.12ZM18.0458 35V11H24.2378V35H18.0458ZM53.5691 10.328C56.3211 10.328 58.5131 11.224 60.1451 13.016C61.8091 14.808 62.6411 17.208 62.6411 20.216V35H56.4491V20.648C56.4491 19.208 56.0971 18.088 55.3931 17.288C54.6891 16.488 53.6971 16.088 52.4171 16.088C51.0091 16.088 49.9051 16.552 49.1051 17.48C48.3371 18.408 47.9531 19.752 47.9531 21.512V35H41.7611V20.648C41.7611 19.208 41.4091 18.088 40.7051 17.288C40.0011 16.488 39.0091 16.088 37.7291 16.088C36.3531 16.088 35.2491 16.552 34.4171 17.48C33.6171 18.408 33.2171 19.752 33.2171 21.512V35H27.0251V11H33.2171V13.544C34.6571 11.4 36.8811 10.328 39.8891 10.328C42.8331 10.328 45.0091 11.48 46.4171 13.784C48.0171 11.48 50.4011 10.328 53.5691 10.328ZM71.5001 34.424C70.7001 35.224 69.7401 35.624 68.6201 35.624C67.5001 35.624 66.5401 35.224 65.7401 34.424C64.9401 33.624 64.5401 32.664 64.5401 31.544C64.5401 30.424 64.9401 29.464 65.7401 28.664C66.5401 27.864 67.5001 27.464 68.6201 27.464C69.7401 27.464 70.7001 27.864 71.5001 28.664C72.3001 29.464 72.7001 30.424 72.7001 31.544C72.7001 32.664 72.3001 33.624 71.5001 34.424ZM83.526 35.672C79.91 35.672 76.886 34.456 74.454 32.024C72.054 29.592 70.854 26.584 70.854 23C70.854 19.416 72.054 16.408 74.454 13.976C76.886 11.544 79.91 10.328 83.526 10.328C85.862 10.328 87.99 10.888 89.91 12.008C91.83 13.128 93.286 14.632 94.278 16.52L88.95 19.64C88.47 18.648 87.734 17.864 86.742 17.288C85.782 16.712 84.694 16.424 83.478 16.424C81.622 16.424 80.086 17.048 78.87 18.296C77.654 19.512 77.046 21.08 77.046 23C77.046 24.888 77.654 26.456 78.87 27.704C80.086 28.92 81.622 29.528 83.478 29.528C84.726 29.528 85.83 29.256 86.79 28.712C87.782 28.136 88.518 27.352 88.998 26.36L94.374 29.432C93.318 31.32 91.83 32.84 89.91 33.992C87.99 35.112 85.862 35.672 83.526 35.672ZM111.674 11H117.866V35H111.674V32.168C109.818 34.504 107.21 35.672 103.85 35.672C100.65 35.672 97.8979 34.456 95.5939 32.024C93.3219 29.56 92.1859 26.552 92.1859 23C92.1859 19.448 93.3219 16.456 95.5939 14.024C97.8979 11.56 100.65 10.328 103.85 10.328C107.21 10.328 109.818 11.496 111.674 13.832V11ZM100.25 27.896C101.498 29.144 103.082 29.768 105.002 29.768C106.922 29.768 108.506 29.144 109.754 27.896C111.034 26.616 111.674 24.984 111.674 23C111.674 21.016 111.034 19.4 109.754 18.152C108.506 16.872 106.922 16.232 105.002 16.232C103.082 16.232 101.498 16.872 100.25 18.152C99.0019 19.4 98.3779 21.016 98.3779 23C98.3779 24.984 99.0019 26.616 100.25 27.896ZM125.165 17.816C125.165 18.456 125.581 18.984 126.413 19.4C127.277 19.784 128.317 20.136 129.533 20.456C130.749 20.744 131.965 21.128 133.181 21.608C134.397 22.056 135.421 22.824 136.253 23.912C137.117 25 137.549 26.36 137.549 27.992C137.549 30.456 136.621 32.36 134.765 33.704C132.941 35.016 130.653 35.672 127.901 35.672C122.973 35.672 119.613 33.768 117.821 29.96L123.197 26.936C123.901 29.016 125.469 30.056 127.901 30.056C130.109 30.056 131.213 29.368 131.213 27.992C131.213 27.352 130.781 26.84 129.917 26.456C129.085 26.04 128.061 25.672 126.845 25.352C125.629 25.032 124.413 24.632 123.197 24.152C121.981 23.672 120.941 22.92 120.077 21.896C119.245 20.84 118.829 19.528 118.829 17.96C118.829 15.592 119.693 13.736 121.421 12.392C123.181 11.016 125.357 10.328 127.949 10.328C129.901 10.328 131.677 10.776 133.277 11.672C134.877 12.536 136.141 13.784 137.069 15.416L131.789 18.296C131.021 16.664 129.741 15.848 127.949 15.848C127.149 15.848 126.477 16.024 125.933 16.376C125.421 16.728 125.165 17.208 125.165 17.816ZM150.716 16.952H145.292V26.936C145.292 27.768 145.5 28.376 145.916 28.76C146.332 29.144 146.94 29.368 147.74 29.432C148.54 29.464 149.532 29.448 150.716 29.384V35C146.46 35.48 143.452 35.08 141.692 33.8C139.964 32.52 139.1 30.232 139.1 26.936V16.952H134.924V11H139.1V6.152L145.292 4.28V11H150.716V16.952ZM156.438 17.816C156.438 18.456 156.854 18.984 157.686 19.4C158.55 19.784 159.59 20.136 160.806 20.456C162.022 20.744 163.238 21.128 164.454 21.608C165.67 22.056 166.694 22.824 167.526 23.912C168.39 25 168.822 26.36 168.822 27.992C168.822 30.456 167.894 32.36 166.038 33.704C164.214 35.016 161.926 35.672 159.174 35.672C154.246 35.672 150.886 33.768 149.094 29.96L154.47 26.936C155.174 29.016 156.742 30.056 159.174 30.056C161.382 30.056 162.486 29.368 162.486 27.992C162.486 27.352 162.054 26.84 161.19 26.456C160.358 26.04 159.334 25.672 158.118 25.352C156.902 25.032 155.686 24.632 154.47 24.152C153.254 23.672 152.214 22.92 151.35 21.896C150.518 20.84 150.102 19.528 150.102 17.96C150.102 15.592 150.966 13.736 152.694 12.392C154.454 11.016 156.63 10.328 159.222 10.328C161.174 10.328 162.95 10.776 164.55 11.672C166.15 12.536 167.414 13.784 168.342 15.416L163.062 18.296C162.294 16.664 161.014 15.848 159.222 15.848C158.422 15.848 157.75 16.024 157.206 16.376C156.694 16.728 156.438 17.208 156.438 17.816Z" fill="black"/>
</svg>
